<svg width="120" height="30" viewBox="0 0 120 30" fill="none" xmlns="http://www.w3.org/2000/svg">
<path d="M10.9858 13.0275H8.78849C8.72582 12.6672 8.61028 12.348 8.44186 12.0699C8.27344 11.7879 8.06389 11.549 7.81323 11.3531C7.56256 11.1573 7.27664 11.0104 6.95546 10.9125C6.63821 10.8107 6.2955 10.7598 5.92733 10.7598C5.27324 10.7598 4.69356 10.9243 4.18831 11.2533C3.68305 11.5783 3.28746 12.0562 3.00154 12.6868C2.71562 13.3134 2.57266 14.0792 2.57266 14.9839C2.57266 15.9044 2.71562 16.6799 3.00154 17.3105C3.29138 17.9371 3.68697 18.4111 4.18831 18.7322C4.69356 19.0495 5.27128 19.2081 5.92145 19.2081C6.28179 19.2081 6.61863 19.1611 6.93196 19.0671C7.24922 18.9692 7.53318 18.8262 7.78385 18.6382C8.03844 18.4502 8.2519 18.2191 8.42423 17.945C8.60048 17.6708 8.7219 17.3575 8.78849 17.005L10.9858 17.0167C10.9035 17.5885 10.7253 18.1251 10.4511 18.6265C10.1809 19.1278 9.82642 19.5704 9.38774 19.9542C8.94907 20.3342 8.43598 20.6318 7.84848 20.8472C7.26097 21.0588 6.60884 21.1645 5.89208 21.1645C4.83456 21.1645 3.89064 20.9197 3.06029 20.4301C2.22995 19.9405 1.57586 19.2336 1.09802 18.3092C0.62018 17.3849 0.381261 16.2764 0.381261 14.9839C0.381261 13.6875 0.622139 12.5791 1.10389 11.6586C1.58565 10.7343 2.2417 10.0273 3.07204 9.53774C3.90239 9.04815 4.8424 8.80335 5.89208 8.80335C6.56184 8.80335 7.18459 8.89735 7.76035 9.08536C8.33611 9.27336 8.8492 9.54949 9.29962 9.91374C9.75004 10.2741 10.1202 10.7167 10.41 11.2415C10.7038 11.7624 10.8957 12.3578 10.9858 13.0275ZM16.8241 21.1763C15.9429 21.1763 15.1791 20.9824 14.5328 20.5946C13.8866 20.2069 13.3852 19.6644 13.0288 18.9672C12.6763 18.2701 12.5001 17.4554 12.5001 16.5232C12.5001 15.591 12.6763 14.7744 13.0288 14.0733C13.3852 13.3722 13.8866 12.8278 14.5328 12.44C15.1791 12.0523 15.9429 11.8584 16.8241 11.8584C17.7054 11.8584 18.4691 12.0523 19.1154 12.44C19.7617 12.8278 20.261 13.3722 20.6135 14.0733C20.97 14.7744 21.1482 15.591 21.1482 16.5232C21.1482 17.4554 20.97 18.2701 20.6135 18.9672C20.261 19.6644 19.7617 20.2069 19.1154 20.5946C18.4691 20.9824 17.7054 21.1763 16.8241 21.1763ZM16.8359 19.4725C17.3137 19.4725 17.7132 19.3413 18.0344 19.0789C18.3556 18.8125 18.5945 18.4561 18.7511 18.0096C18.9117 17.5631 18.992 17.0657 18.992 16.5173C18.992 15.9651 18.9117 15.4657 18.7511 15.0192C18.5945 14.5688 18.3556 14.2104 18.0344 13.944C17.7132 13.6777 17.3137 13.5445 16.8359 13.5445C16.3463 13.5445 15.9389 13.6777 15.6139 13.944C15.2927 14.2104 15.0518 14.5688 14.8912 15.0192C14.7345 15.4657 14.6562 15.9651 14.6562 16.5173C14.6562 17.0657 14.7345 17.5631 14.8912 18.0096C15.0518 18.4561 15.2927 18.8125 15.6139 19.0789C15.9389 19.3413 16.3463 19.4725 16.8359 19.4725ZM25.0801 15.7124V21H22.9533V11.9759H24.9861V13.5093H25.0918C25.2994 13.004 25.6304 12.6026 26.0847 12.3049C26.543 12.0072 27.1089 11.8584 27.7826 11.8584C28.4053 11.8584 28.9478 11.9916 29.41 12.2579C29.8761 12.5242 30.2364 12.91 30.491 13.4153C30.7495 13.9205 30.8768 14.5335 30.8729 15.2542V21H28.7461V15.5832C28.7461 14.98 28.5894 14.508 28.2761 14.1673C27.9667 13.8265 27.5378 13.6562 26.9895 13.6562C26.6174 13.6562 26.2864 13.7384 25.9966 13.9029C25.7106 14.0635 25.4854 14.2965 25.3209 14.602C25.1604 14.9076 25.0801 15.2777 25.0801 15.7124ZM35.1617 15.7124V21H33.0349V11.9759H35.0677V13.5093H35.1734C35.381 13.004 35.712 12.6026 36.1663 12.3049C36.6246 12.0072 37.1905 11.8584 37.8642 11.8584C38.487 11.8584 39.0294 11.9916 39.4916 12.2579C39.9577 12.5242 40.318 12.91 40.5726 13.4153C40.8311 13.9205 40.9584 14.5335 40.9545 15.2542V21H38.8277V15.5832C38.8277 14.98 38.6711 14.508 38.3577 14.1673C38.0483 13.8265 37.6194 13.6562 37.0711 13.6562C36.699 13.6562 36.368 13.7384 36.0782 13.9029C35.7923 14.0635 35.5671 14.2965 35.4026 14.602C35.242 14.9076 35.1617 15.2777 35.1617 15.7124ZM47.1116 21.1763C46.2068 21.1763 45.4254 20.9882 44.7674 20.6122C44.1133 20.2323 43.61 19.6957 43.2575 19.0025C42.905 18.3053 42.7288 17.4847 42.7288 16.5408C42.7288 15.6126 42.905 14.7979 43.2575 14.0968C43.6139 13.3918 44.1114 12.8434 44.7498 12.4518C45.3882 12.0562 46.1383 11.8584 46.9999 11.8584C47.5561 11.8584 48.081 11.9485 48.5745 12.1286C49.0719 12.3049 49.5106 12.5791 49.8905 12.9512C50.2743 13.3232 50.5759 13.7972 50.7952 14.3729C51.0146 14.9448 51.1242 15.6263 51.1242 16.4174V17.0696H43.7275V15.6361H49.0856C49.0817 15.2287 48.9936 14.8664 48.8212 14.5492C48.6489 14.228 48.408 13.9754 48.0986 13.7913C47.7931 13.6072 47.4367 13.5152 47.0293 13.5152C46.5946 13.5152 46.2127 13.6209 45.8837 13.8324C45.5547 14.04 45.2981 14.3142 45.114 14.6549C44.9339 14.9918 44.8418 15.3619 44.8379 15.7653V17.0167C44.8379 17.5415 44.9339 17.992 45.1258 18.368C45.3177 18.7401 45.586 19.026 45.9307 19.2257C46.2754 19.4216 46.6788 19.5195 47.1409 19.5195C47.4504 19.5195 47.7304 19.4764 47.9811 19.3902C48.2318 19.3001 48.4491 19.1689 48.6332 18.9966C48.8173 18.8243 48.9563 18.6108 49.0503 18.3562L51.0361 18.5795C50.9108 19.1043 50.6719 19.5626 50.3194 19.9542C49.9708 20.342 49.5243 20.6436 48.9798 20.859C48.4354 21.0705 47.8127 21.1763 47.1116 21.1763ZM56.8598 21.1763C55.9589 21.1763 55.1854 20.9785 54.5391 20.5829C53.8968 20.1873 53.4013 19.6409 53.0527 18.9437C52.7081 18.2426 52.5357 17.4358 52.5357 16.5232C52.5357 15.6067 52.712 14.7979 53.0645 14.0968C53.417 13.3918 53.9144 12.8434 54.5568 12.4518C55.203 12.0562 55.9668 11.8584 56.848 11.8584C57.5805 11.8584 58.2287 11.9935 58.7927 12.2638C59.3606 12.5301 59.813 12.9081 60.1498 13.3977C60.4867 13.8833 60.6786 14.4513 60.7256 15.1014H58.6928C58.6106 14.6667 58.4147 14.3044 58.1053 14.0145C57.7998 13.7208 57.3905 13.5739 56.8774 13.5739C56.4427 13.5739 56.0608 13.6914 55.7318 13.9264C55.4028 14.1575 55.1462 14.4904 54.9621 14.9252C54.782 15.3599 54.6919 15.8809 54.6919 16.4879C54.6919 17.1029 54.782 17.6316 54.9621 18.0742C55.1423 18.5129 55.3949 18.8517 55.72 19.0906C56.049 19.3256 56.4348 19.4431 56.8774 19.4431C57.1907 19.4431 57.4708 19.3844 57.7175 19.2669C57.9682 19.1454 58.1778 18.9711 58.3462 18.744C58.5146 18.5168 58.6301 18.2407 58.6928 17.9156H60.7256C60.6747 18.554 60.4867 19.12 60.1616 19.6135C59.8365 20.1031 59.3939 20.4869 58.8338 20.765C58.2737 21.0392 57.6157 21.1763 56.8598 21.1763ZM66.9781 11.9759V13.6209H61.7904V11.9759H66.9781ZM63.0712 9.81387H65.198V18.2857C65.198 18.5716 65.2411 18.791 65.3272 18.9437C65.4173 19.0926 65.5348 19.1944 65.6797 19.2492C65.8247 19.3041 65.9852 19.3315 66.1615 19.3315C66.2947 19.3315 66.4161 19.3217 66.5257 19.3021C66.6393 19.2825 66.7255 19.2649 66.7842 19.2492L67.1426 20.9119C67.029 20.951 66.8665 20.9941 66.655 21.0411C66.4474 21.0881 66.1928 21.1155 65.8912 21.1234C65.3586 21.139 64.8788 21.0588 64.4518 20.8825C64.0249 20.7023 63.6861 20.4242 63.4355 20.0482C63.1887 19.6722 63.0673 19.2022 63.0712 18.6382V9.81387Z" fill="white"/>
<rect x="71" width="49" height="30" rx="1" fill="white"/>
<path d="M75.1868 21V8.96785H79.7928C80.6623 8.96785 81.385 9.10494 81.9607 9.37911C82.5404 9.64936 82.9732 10.0195 83.2591 10.4895C83.5489 10.9595 83.6939 11.4922 83.6939 12.0875C83.6939 12.5771 83.5999 12.9962 83.4119 13.3448C83.2239 13.6895 82.9712 13.9695 82.654 14.1849C82.3367 14.4003 81.9823 14.555 81.5906 14.649V14.7665C82.0175 14.79 82.4268 14.9213 82.8185 15.1602C83.2141 15.3952 83.5372 15.7281 83.7879 16.1589C84.0385 16.5898 84.1639 17.1107 84.1639 17.7217C84.1639 18.3445 84.0131 18.9046 83.7115 19.402C83.4099 19.8955 82.9556 20.2852 82.3485 20.5711C81.7414 20.857 80.9776 21 80.0572 21H75.1868ZM77.3664 19.1787H79.7106C80.5017 19.1787 81.0716 19.0279 81.4202 18.7263C81.7727 18.4208 81.949 18.0292 81.949 17.5513C81.949 17.1949 81.8608 16.8737 81.6846 16.5878C81.5083 16.298 81.2577 16.0708 80.9326 15.9063C80.6075 15.7379 80.2197 15.6537 79.7693 15.6537H77.3664V19.1787ZM77.3664 14.085H79.5226C79.8986 14.085 80.2374 14.0165 80.539 13.8794C80.8405 13.7384 81.0775 13.5406 81.2498 13.286C81.4261 13.0275 81.5142 12.722 81.5142 12.3695C81.5142 11.9034 81.3497 11.5196 81.0207 11.218C80.6956 10.9164 80.2119 10.7656 79.5696 10.7656H77.3664V14.085ZM91.7177 17.2047V11.9759H93.8445V21H91.7824V19.3961H91.6884C91.4847 19.9014 91.1498 20.3146 90.6837 20.6357C90.2216 20.9569 89.6517 21.1175 88.9741 21.1175C88.3827 21.1175 87.8598 20.9863 87.4054 20.7239C86.955 20.4575 86.6025 20.0717 86.3479 19.5665C86.0933 19.0573 85.9661 18.4424 85.9661 17.7217V11.9759H88.0928V17.3927C88.0928 17.9645 88.2495 18.4189 88.5628 18.7557C88.8762 19.0926 89.2874 19.261 89.7966 19.261C90.1099 19.261 90.4135 19.1846 90.7072 19.0319C91.001 18.8791 91.2419 18.6519 91.4299 18.3503C91.6218 18.0448 91.7177 17.663 91.7177 17.2047ZM96.0315 21V11.9759H98.0937V13.4799H98.1877C98.3522 12.959 98.6342 12.5575 99.0337 12.2755C99.4371 11.9896 99.8973 11.8466 100.414 11.8466C100.532 11.8466 100.663 11.8525 100.808 11.8643C100.957 11.8721 101.08 11.8858 101.178 11.9054V13.8618C101.088 13.8305 100.945 13.803 100.749 13.7795C100.557 13.7521 100.371 13.7384 100.191 13.7384C99.8033 13.7384 99.4547 13.8226 99.1453 13.991C98.8398 14.1555 98.5989 14.3847 98.4227 14.6784C98.2464 14.9722 98.1583 15.311 98.1583 15.6948V21H96.0315ZM109.723 14.3612L107.785 14.5727C107.73 14.3768 107.634 14.1928 107.497 14.0204C107.364 13.8481 107.183 13.709 106.956 13.6033C106.729 13.4975 106.451 13.4447 106.122 13.4447C105.679 13.4447 105.307 13.5406 105.006 13.7325C104.708 13.9245 104.561 14.1732 104.565 14.4787C104.561 14.7411 104.657 14.9546 104.853 15.1191C105.053 15.2836 105.382 15.4187 105.84 15.5244L107.379 15.8534C108.233 16.0375 108.868 16.3293 109.283 16.7288C109.702 17.1283 109.913 17.6512 109.917 18.2975C109.913 18.8654 109.747 19.3667 109.418 19.8015C109.093 20.2323 108.64 20.5692 108.061 20.812C107.481 21.0548 106.815 21.1763 106.063 21.1763C104.959 21.1763 104.07 20.9452 103.396 20.483C102.722 20.0169 102.321 19.3687 102.192 18.5383L104.265 18.3386C104.359 18.7459 104.559 19.0534 104.865 19.261C105.17 19.4686 105.568 19.5724 106.057 19.5724C106.563 19.5724 106.968 19.4686 107.273 19.261C107.583 19.0534 107.738 18.7968 107.738 18.4913C107.738 18.2328 107.638 18.0194 107.438 17.851C107.242 17.6825 106.937 17.5533 106.521 17.4632L104.982 17.1401C104.117 16.9599 103.476 16.6564 103.061 16.2294C102.646 15.7986 102.44 15.2542 102.444 14.5962C102.44 14.04 102.591 13.5582 102.897 13.1509C103.206 12.7397 103.635 12.4224 104.183 12.1991C104.735 11.972 105.372 11.8584 106.093 11.8584C107.15 11.8584 107.982 12.0836 108.589 12.534C109.2 12.9844 109.578 13.5935 109.723 14.3612ZM116.177 11.9759V13.6209H110.989V11.9759H116.177ZM112.27 9.81387H114.397V18.2857C114.397 18.5716 114.44 18.791 114.526 18.9437C114.616 19.0926 114.734 19.1944 114.879 19.2492C115.024 19.3041 115.184 19.3315 115.36 19.3315C115.494 19.3315 115.615 19.3217 115.725 19.3021C115.838 19.2825 115.925 19.2649 115.983 19.2492L116.342 20.9119C116.228 20.951 116.066 20.9941 115.854 21.0411C115.646 21.0881 115.392 21.1155 115.09 21.1234C114.558 21.139 114.078 21.0588 113.651 20.8825C113.224 20.7023 112.885 20.4242 112.634 20.0482C112.388 19.6722 112.266 19.2022 112.27 18.6382V9.81387Z" fill="black"/>
</svg>
